<svg width="24" height="25" viewBox="0 0 24 25" fill="none" xmlns="http://www.w3.org/2000/svg">
<path d="M15 17.9893H20L18.595 16.5843C18.4063 16.3955 18.2567 16.1715 18.1546 15.9249C18.0525 15.6784 18 15.4141 18 15.1473V11.9893C18.0002 10.7482 17.6156 9.5376 16.8992 8.52415C16.1829 7.51069 15.17 6.74422 14 6.33026V5.98926C14 5.45882 13.7893 4.95012 13.4142 4.57504C13.0391 4.19997 12.5304 3.98926 12 3.98926C11.4696 3.98926 10.9609 4.19997 10.5858 4.57504C10.2107 4.95012 10 5.45882 10 5.98926V6.33026C7.67 7.15426 6 9.37726 6 11.9893V15.1483C6 15.6863 5.786 16.2033 5.405 16.5843L4 17.9893H9M15 17.9893V18.9893C15 19.7849 14.6839 20.548 14.1213 21.1106C13.5587 21.6732 12.7956 21.9893 12 21.9893C11.2044 21.9893 10.4413 21.6732 9.87868 21.1106C9.31607 20.548 9 19.7849 9 18.9893V17.9893M15 17.9893H9" stroke="#242424" stroke-width="2" stroke-linecap="round" stroke-linejoin="round"/>
</svg>
