<svg width="24" height="25" viewBox="0 0 24 25" fill="none" xmlns="http://www.w3.org/2000/svg">
<path d="M8 7.97852V3.97852M16 7.97852V3.97852M7 11.9785H17M5 21.9785H19C19.5304 21.9785 20.0391 21.7678 20.4142 21.3927C20.7893 21.0177 21 20.5089 21 19.9785V7.97852C21 7.44808 20.7893 6.93937 20.4142 6.5643C20.0391 6.18923 19.5304 5.97852 19 5.97852H5C4.46957 5.97852 3.96086 6.18923 3.58579 6.5643C3.21071 6.93937 3 7.44808 3 7.97852V19.9785C3 20.5089 3.21071 21.0177 3.58579 21.3927C3.96086 21.7678 4.46957 21.9785 5 21.9785Z" stroke="#848484" stroke-width="2" stroke-linecap="round" stroke-linejoin="round"/>
</svg>
