<svg width="20" height="21" viewBox="0 0 20 21" fill="none" xmlns="http://www.w3.org/2000/svg">
<path fill-rule="evenodd" clip-rule="evenodd" d="M5.29303 8.28185C5.48056 8.09438 5.73487 7.98906 6.00003 7.98906C6.26519 7.98906 6.5195 8.09438 6.70703 8.28185L10 11.5749L13.293 8.28185C13.3853 8.18634 13.4956 8.11016 13.6176 8.05775C13.7396 8.00534 13.8709 7.97775 14.0036 7.9766C14.1364 7.97545 14.2681 8.00075 14.391 8.05103C14.5139 8.10131 14.6255 8.17556 14.7194 8.26946C14.8133 8.36335 14.8876 8.475 14.9379 8.5979C14.9881 8.72079 15.0134 8.85247 15.0123 8.98525C15.0111 9.11803 14.9835 9.24925 14.9311 9.37126C14.8787 9.49326 14.8025 9.6036 14.707 9.69585L10.707 13.6959C10.5195 13.8833 10.2652 13.9886 10 13.9886C9.73487 13.9886 9.48056 13.8833 9.29303 13.6959L5.29303 9.69585C5.10556 9.50832 5.00024 9.25401 5.00024 8.98885C5.00024 8.72369 5.10556 8.46938 5.29303 8.28185Z" fill="#848484"/>
</svg>
