<svg width="24" height="25" viewBox="0 0 24 25" fill="none" xmlns="http://www.w3.org/2000/svg">
<path d="M19 7.97852L18.133 20.1205C18.0971 20.6251 17.8713 21.0973 17.5011 21.4421C17.1309 21.7868 16.6439 21.9785 16.138 21.9785H7.862C7.35614 21.9785 6.86907 21.7868 6.49889 21.4421C6.1287 21.0973 5.90292 20.6251 5.867 20.1205L5 7.97852M10 11.9785V17.9785M14 11.9785V17.9785M15 7.97852V4.97852C15 4.7133 14.8946 4.45895 14.7071 4.27141C14.5196 4.08387 14.2652 3.97852 14 3.97852H10C9.73478 3.97852 9.48043 4.08387 9.29289 4.27141C9.10536 4.45895 9 4.7133 9 4.97852V7.97852M4 7.97852H20" stroke="#848484" stroke-width="2" stroke-linecap="round" stroke-linejoin="round"/>
</svg>
