<svg width="43" height="43" viewBox="0 0 43 43" fill="none" xmlns="http://www.w3.org/2000/svg">
<rect x="1" y="0.978516" width="41" height="41" rx="20.5" stroke="#7D7D7D"/>
<path fill-rule="evenodd" clip-rule="evenodd" d="M13.5 21.4785C13.5001 19.939 13.9445 18.4322 14.7798 17.1389C15.6151 15.8456 16.8058 14.8209 18.209 14.1875C19.6123 13.5542 21.1684 13.3392 22.6908 13.5684C24.2132 13.7976 25.6372 14.4611 26.7918 15.4795C27.9464 16.4979 28.7826 17.8278 29.2002 19.3096C29.6177 20.7915 29.5988 22.3623 29.1457 23.8337C28.6926 25.3051 27.8246 26.6144 26.6458 27.6047C25.467 28.595 24.0275 29.2241 22.5 29.4165V23.4785H24.5C24.7652 23.4785 25.0196 23.3732 25.2071 23.1856C25.3946 22.9981 25.5 22.7437 25.5 22.4785C25.5 22.2133 25.3946 21.9589 25.2071 21.7714C25.0196 21.5839 24.7652 21.4785 24.5 21.4785H22.5V19.4785C22.5 19.2133 22.6054 18.9589 22.7929 18.7714C22.9804 18.5839 23.2348 18.4785 23.5 18.4785H24C24.2652 18.4785 24.5196 18.3732 24.7071 18.1856C24.8946 17.9981 25 17.7437 25 17.4785C25 17.2133 24.8946 16.9589 24.7071 16.7714C24.5196 16.5839 24.2652 16.4785 24 16.4785H23.5C22.7044 16.4785 21.9413 16.7946 21.3787 17.3572C20.8161 17.9198 20.5 18.6829 20.5 19.4785V21.4785H18.5C18.2348 21.4785 17.9804 21.5839 17.7929 21.7714C17.6054 21.9589 17.5 22.2133 17.5 22.4785C17.5 22.7437 17.6054 22.9981 17.7929 23.1856C17.9804 23.3732 18.2348 23.4785 18.5 23.4785H20.5V29.4165C18.5666 29.1729 16.7886 28.232 15.4998 26.7705C14.2109 25.3089 13.4998 23.4272 13.5 21.4785ZM21.5 31.4785C27.023 31.4785 31.5 27.0015 31.5 21.4785C31.5 15.9555 27.023 11.4785 21.5 11.4785C15.977 11.4785 11.5 15.9555 11.5 21.4785C11.5 27.0015 15.977 31.4785 21.5 31.4785Z" fill="#EAEAEA"/>
</svg>
