<svg width="43" height="43" viewBox="0 0 43 43" fill="none" xmlns="http://www.w3.org/2000/svg">
<rect x="1" y="0.978516" width="41" height="41" rx="20.5" stroke="#7D7D7D"/>
<path d="M12 21.4785C12 17.0005 12 14.7605 13.391 13.3695C14.782 11.9785 17.021 11.9785 21.5 11.9785C25.978 11.9785 28.218 11.9785 29.609 13.3695C31 14.7605 31 16.9995 31 21.4785C31 25.9565 31 28.1965 29.609 29.5875C28.218 30.9785 25.979 30.9785 21.5 30.9785C17.022 30.9785 14.782 30.9785 13.391 29.5875C12 28.1965 12 25.9575 12 21.4785Z" stroke="#EAEAEA" stroke-width="1.5" stroke-linecap="round" stroke-linejoin="round"/>
<path d="M27.008 15.9785H26.998M26 21.4785C26 22.672 25.5259 23.8166 24.682 24.6605C23.8381 25.5044 22.6935 25.9785 21.5 25.9785C20.3065 25.9785 19.1619 25.5044 18.318 24.6605C17.4741 23.8166 17 22.672 17 21.4785C17 20.285 17.4741 19.1404 18.318 18.2965C19.1619 17.4526 20.3065 16.9785 21.5 16.9785C22.6935 16.9785 23.8381 17.4526 24.682 18.2965C25.5259 19.1404 26 20.285 26 21.4785Z" stroke="#EAEAEA" stroke-width="1.5" stroke-linecap="round" stroke-linejoin="round"/>
</svg>
