<svg width="21" height="21" viewBox="0 0 21 21" fill="none" xmlns="http://www.w3.org/2000/svg">
<path fill-rule="evenodd" clip-rule="evenodd" d="M12.05 1.54632C12.253 1.61016 12.4303 1.7371 12.5562 1.90868C12.6821 2.08025 12.75 2.28751 12.75 2.50032V7.50032H16.75C16.9329 7.50024 17.1123 7.55033 17.2688 7.64515C17.4252 7.73996 17.5526 7.87586 17.6372 8.03806C17.7217 8.20027 17.7602 8.38255 17.7483 8.56509C17.7365 8.74762 17.6748 8.92341 17.57 9.07332L10.57 19.0733C10.4482 19.2479 10.2738 19.379 10.0723 19.4476C9.87084 19.5162 9.65271 19.5187 9.44968 19.4548C9.24666 19.3909 9.06932 19.2638 8.94348 19.0922C8.81764 18.9205 8.74985 18.7132 8.74999 18.5003V13.5003H4.74999C4.56707 13.5004 4.38763 13.4503 4.2312 13.3555C4.07478 13.2607 3.94735 13.1248 3.8628 12.9626C3.77824 12.8004 3.7398 12.6181 3.75164 12.4356C3.76349 12.253 3.82518 12.0772 3.92999 11.9273L10.93 1.92732C11.052 1.75311 11.2264 1.62233 11.4278 1.554C11.6292 1.48566 11.8472 1.48332 12.05 1.54732V1.54632Z" fill="#E5A121"/>
</svg>
