<svg width="25" height="25" viewBox="0 0 25 25" fill="none" xmlns="http://www.w3.org/2000/svg">
<path d="M18.157 17.1567L13.914 21.3997C13.7284 21.5854 13.5081 21.7328 13.2656 21.8333C13.023 21.9339 12.7631 21.9856 12.5005 21.9856C12.238 21.9856 11.978 21.9339 11.7354 21.8333C11.4929 21.7328 11.2726 21.5854 11.087 21.3997L6.843 17.1567C5.72422 16.0379 4.96234 14.6124 4.65369 13.0606C4.34504 11.5087 4.50349 9.90022 5.10901 8.43844C5.71452 6.97665 6.7399 5.72725 8.05548 4.84821C9.37107 3.96918 10.9178 3.5 12.5 3.5C14.0822 3.5 15.6289 3.96918 16.9445 4.84821C18.2601 5.72725 19.2855 6.97665 19.891 8.43844C20.4965 9.90022 20.655 11.5087 20.3463 13.0606C20.0377 14.6124 19.2758 16.0379 18.157 17.1567Z" stroke="#7D7D7D" stroke-width="2" stroke-linecap="round" stroke-linejoin="round"/>
<path d="M15.5 11.5C15.5 12.2956 15.1839 13.0587 14.6213 13.6213C14.0587 14.1839 13.2956 14.5 12.5 14.5C11.7044 14.5 10.9413 14.1839 10.3787 13.6213C9.81607 13.0587 9.5 12.2956 9.5 11.5C9.5 10.7044 9.81607 9.94129 10.3787 9.37868C10.9413 8.81607 11.7044 8.5 12.5 8.5C13.2956 8.5 14.0587 8.81607 14.6213 9.37868C15.1839 9.94129 15.5 10.7044 15.5 11.5Z" stroke="#7D7D7D" stroke-width="2" stroke-linecap="round" stroke-linejoin="round"/>
</svg>
