<svg width="25" height="25" viewBox="0 0 25 25" fill="none" xmlns="http://www.w3.org/2000/svg">
<path d="M3.5 5.5C3.5 4.96957 3.71071 4.46086 4.08579 4.08579C4.46086 3.71071 4.96957 3.5 5.5 3.5H8.78C8.98979 3.50016 9.19422 3.5663 9.36436 3.68905C9.53449 3.8118 9.6617 3.98496 9.728 4.184L11.226 8.677C11.3019 8.90534 11.2929 9.15339 11.2007 9.37564C11.1085 9.5979 10.9393 9.77945 10.724 9.887L8.467 11.017C9.57332 13.4655 11.5345 15.4267 13.983 16.533L15.113 14.276C15.2205 14.0607 15.4021 13.8915 15.6244 13.7993C15.8466 13.7071 16.0947 13.6981 16.323 13.774L20.816 15.272C21.0152 15.3383 21.1885 15.4657 21.3112 15.636C21.434 15.8064 21.5001 16.011 21.5 16.221V19.5C21.5 20.0304 21.2893 20.5391 20.9142 20.9142C20.5391 21.2893 20.0304 21.5 19.5 21.5H18.5C10.216 21.5 3.5 14.784 3.5 6.5V5.5Z" stroke="#7D7D7D" stroke-width="2" stroke-linecap="round" stroke-linejoin="round"/>
</svg>
