<svg width="25" height="25" viewBox="0 0 25 25" fill="none" xmlns="http://www.w3.org/2000/svg">
<path d="M4.80078 16.9785L9.38678 12.3925C9.76184 12.0176 10.2705 11.8069 10.8008 11.8069C11.3311 11.8069 11.8397 12.0176 12.2148 12.3925L16.8008 16.9785M14.8008 14.9785L16.3868 13.3925C16.7618 13.0176 17.2705 12.8069 17.8008 12.8069C18.3311 12.8069 18.8397 13.0176 19.2148 13.3925L20.8008 14.9785M14.8008 8.97852H14.8108M6.80078 20.9785H18.8008C19.3312 20.9785 19.8399 20.7678 20.215 20.3927C20.5901 20.0177 20.8008 19.5089 20.8008 18.9785V6.97852C20.8008 6.44808 20.5901 5.93937 20.215 5.5643C19.8399 5.18923 19.3312 4.97852 18.8008 4.97852H6.80078C6.27035 4.97852 5.76164 5.18923 5.38657 5.5643C5.01149 5.93937 4.80078 6.44808 4.80078 6.97852V18.9785C4.80078 19.5089 5.01149 20.0177 5.38657 20.3927C5.76164 20.7678 6.27035 20.9785 6.80078 20.9785Z" stroke="black" stroke-width="2" stroke-linecap="round" stroke-linejoin="round"/>
</svg>
