<svg width="40" height="41" viewBox="0 0 40 41" fill="none" xmlns="http://www.w3.org/2000/svg">
<rect x="0.5" y="1.47852" width="39" height="39" rx="7.5" stroke="#EAEAEA"/>
<path d="M12 12.9784V17.9784H12.582M12.582 17.9784C13.2458 16.3366 14.4357 14.9614 15.965 14.0683C17.4944 13.1753 19.2768 12.8149 21.033 13.0436C22.7891 13.2723 24.4198 14.0772 25.6694 15.3322C26.919 16.5872 27.7168 18.2213 27.938 19.9784M12.582 17.9784H17M28 28.9784V23.9784H27.419M27.419 23.9784C26.7542 25.6194 25.564 26.9935 24.0348 27.8857C22.5056 28.778 20.7237 29.138 18.9681 28.9093C17.2125 28.6807 15.5822 27.8763 14.3325 26.6222C13.0829 25.368 12.2844 23.7349 12.062 21.9784M27.419 23.9784H23" stroke="#282828" stroke-width="2" stroke-linecap="round" stroke-linejoin="round"/>
</svg>
