<svg width="24" height="24" viewBox="0 0 24 24" fill="none" xmlns="http://www.w3.org/2000/svg">
<path d="M14 3V7C14 7.26522 14.1054 7.51957 14.2929 7.70711C14.4804 7.89464 14.7348 8 15 8H19" stroke="#073B2B" stroke-width="2" stroke-linecap="round" stroke-linejoin="round"/>
<path d="M19 12V19C19.0473 19.3774 18.9725 19.76 18.7865 20.0918C18.6005 20.4235 18.3131 20.687 17.9665 20.8435C17.6198 21.0001 17.2322 21.0415 16.8603 20.9617C16.4884 20.8818 16.1519 20.685 15.9 20.4C15.7457 20.2026 15.5484 20.0429 15.3232 19.933C15.0979 19.8232 14.8506 19.7661 14.6 19.7661C14.3494 19.7661 14.1021 19.8232 13.8769 19.933C13.6516 20.0429 13.4543 20.2026 13.3 20.4C13.1457 20.5974 12.9484 20.7571 12.7232 20.867C12.4979 20.9768 12.2506 21.0339 12 21.0339C11.7494 21.0339 11.5021 20.9768 11.2769 20.867C11.0516 20.7571 10.8543 20.5974 10.7 20.4C10.5457 20.2026 10.3484 20.0429 10.1232 19.933C9.89792 19.8232 9.65062 19.7661 9.40002 19.7661C9.14942 19.7661 8.90211 19.8232 8.67686 19.933C8.45162 20.0429 8.25434 20.2026 8.10002 20.4C7.84816 20.685 7.51163 20.8818 7.13975 20.9617C6.76788 21.0415 6.38022 21.0001 6.03358 20.8435C5.68695 20.687 5.39957 20.4235 5.21357 20.0918C5.02757 19.76 4.95273 19.3774 5.00002 19V5C5.00002 4.46957 5.21073 3.96086 5.5858 3.58579C5.96088 3.21071 6.46958 3 7.00002 3H14L19 8V12.25" stroke="#073B2B" stroke-width="2" stroke-linecap="round" stroke-linejoin="round"/>
</svg>
