<svg width="52" height="58" viewBox="0 0 52 58" fill="none" xmlns="http://www.w3.org/2000/svg">
<path d="M5.34783 1C2.94659 1 1 2.94659 1 5.34783V52.6304C1 55.0317 2.94659 56.9783 5.34783 56.9783H46.6522C49.0534 56.9783 51 55.0317 51 52.6304V43.7989C51 43.1236 50.4525 42.5761 49.7772 42.5761C49.1018 42.5761 48.5543 43.1236 48.5543 43.7989V50.4565C48.5543 52.8578 46.6078 54.8043 44.2065 54.8043H39.8587C37.4575 54.8043 35.5109 52.8578 35.5109 50.4565V46.9239C35.5109 44.5227 33.5643 42.5761 31.163 42.5761H8.06522C5.66398 42.5761 3.71739 40.6295 3.71739 38.2283V7.79348C3.71739 5.39224 5.66398 3.44565 8.06522 3.44565H36.3261C38.7273 3.44565 40.6739 5.39224 40.6739 7.79348V47.6712C40.6739 48.4591 41.3126 49.0978 42.1005 49.0978C42.8885 49.0978 43.5272 48.4591 43.5272 47.6712V5.34783C43.5272 2.94659 41.5806 1 39.1793 1H5.34783Z" fill="#248567"/>
<path d="M7.79348 9.69565H35.5109M7.79348 14.587H35.5109M7.79348 20.0217H15.6739M9.42391 28.4457L12.7168 31.8817C14.3581 33.5944 17.0702 33.6745 18.8108 32.0628C22.7704 28.3966 25.7481 25.6395 30.3478 21.3804M40.6739 47.6712V7.79348C40.6739 5.39224 38.7273 3.44565 36.3261 3.44565H8.06522C5.66398 3.44565 3.71739 5.39224 3.71739 7.79348V38.2283C3.71739 40.6295 5.66398 42.5761 8.06522 42.5761H31.163C33.5643 42.5761 35.5109 44.5227 35.5109 46.9239V50.4565C35.5109 52.8578 37.4575 54.8043 39.8587 54.8043H44.2065C46.6078 54.8043 48.5543 52.8578 48.5543 50.4565V43.7989C48.5543 43.1236 49.1018 42.5761 49.7772 42.5761C50.4525 42.5761 51 43.1236 51 43.7989V52.6304C51 55.0317 49.0534 56.9783 46.6522 56.9783H5.34783C2.94659 56.9783 1 55.0317 1 52.6304V5.34783C1 2.94659 2.94659 1 5.34783 1H39.1793C41.5806 1 43.5272 2.94659 43.5272 5.34783V47.6712C43.5272 48.4591 42.8884 49.0978 42.1005 49.0978C41.3126 49.0978 40.6739 48.4591 40.6739 47.6712Z" stroke="#248567" stroke-width="1.63043"/>
</svg>
